<?xml version="1.0" encoding="utf-8"?>
<svg xmlns="http://www.w3.org/2000/svg" viewBox="1267.1357 1504.6266 1000.041 518.0885" width="1000.04px" height="518.088px" xmlns:bx="https://boxy-svg.com" preserveAspectRatio="none"><defs><linearGradient id="color-5-0" href="#color-5" gradientUnits="userSpaceOnUse" x1="60.629" y1="669.501" x2="60.629" y2="1051.274"/><linearGradient bx:pinned="true" id="color-5"><stop style="stop-color: #00b09b;" offset="0"/><stop style="stop-color: #96c93d;" offset="1"/></linearGradient><style bx:fonts="Carter One">@import url(https://fonts.googleapis.com/css2?family=Carter+One%3Aital%2Cwght%400%2C400&amp;display=swap);</style></defs><g id="object-3" transform="matrix(0.9999999999999999, 0, 0, 0.9999999999999999, 0, 0)"><g transform="matrix(0.995554, 0, 0, 0.995554, 1380.375041, 957.936552)" id="group-9"><g transform="matrix(0.1, 0, 0, -0.1, -451.394257, 1027.962036)" fill="#000000" stroke="none"><g><g transform="matrix(1, 0, 0, 1, 471.784485, -3575.629639)" id="group-10"><path d="M 5054.16 8187.77 C 4994.33 8152.58 4946.61 8114.4 4909.72 8074.45 C 4805.91 7960.02 4693.07 7771.61 4659.04 7656.88 L 4630.96 7568.32 L 4567.05 7699.18 C 4543.47 7746.4 4504.62 7809.57 4480.35 7839.54 C 4390.49 7952.55 4234.33 8060 4165 8060 C 4135.92 8060 4074.65 7956.14 4088.45 7926.72 C 4095.19 7907.88 4111.62 7896.88 4168.13 7867.8 C 4346.8 7777.56 4462.07 7612.24 4494.77 7403.06 L 4504.41 7341.08 L 4496.2 7338.5 L 4382.99 7302.92 C 4175.39 7238.04 4007.04 7130.13 3886.34 6984.16 C 3775.93 6852.81 3710.11 6690.46 3664.69 6436.47 C 3614.84 6158.87 3561.16 6047.86 3284.37 5650.52 C 3090.96 5374.46 3004.38 5216.4 2959.21 5058.44 C 2905.59 4873.73 2887.84 4506.32 2922.68 4313.56 C 2958.41 4118.68 2979.52 4048.36 3035.88 3935.96 C 3233.28 3542.22 3537.62 3293.48 3928.51 3205.49 C 4104.43 3164.74 4334.18 3160.81 4485.79 3195.55 C 4583.93 3216.78 4719.75 3216.6 4805.19 3195.32 C 4890.04 3172.66 5146 3163.92 5260.4 3178.83 C 5443.12 3203.26 5640.79 3279.63 5800.8 3387.57 C 5856.95 3425.93 5937.43 3494.68 6010.84 3568.12 C 6110.09 3668.3 6140.73 3706.58 6198.91 3805.39 C 6238.54 3870.72 6285.77 3964.19 6304.38 4012.3 C 6371.82 4184.23 6418.14 4475.85 6406.05 4648.6 C 6377.63 5044.88 6285.51 5296.7 6048.8 5623.27 C 5757.88 6024.82 5702.15 6141.86 5640.34 6471.31 C 5612.65 6618.11 5571.7 6746.13 5525.46 6830.38 C 5421.27 7020.01 5275.53 7160.87 5094.32 7243.98 L 4978.83 7299.14 L 5030.74 7313.3 L 5075.1 7325.39 C 5204.51 7358.34 5369.61 7455.44 5451.25 7546.51 C 5523.96 7625.73 5619.87 7793.28 5656.06 7904.42 C 5695.69 8021.97 5712.15 8114.91 5714 8236.3 C 5715.1 8316.76 5715.38 8323.99 5699.98 8335.79 L 5699.46 8336.23 L 5699.2 8336.53 L 5698.99 8336.77 C 5678.62 8361.61 5642.85 8362.15 5538.12 8345.25 C 5312.68 8309.62 5191.14 8269.85 5054.16 8187.77 Z M 5523.7 8177.31 C 5528.3 8176.53 5534.3 8174.38 5537.95 8172.16 L 5538.27 8171.96 L 5538.66 8171.71 L 5539.02 8171.48 L 5539.34 8171.18 L 5539.66 8170.88 L 5539.87 8170.69 C 5543.34 8167.19 5547.16 8160.91 5548.55 8156.54 L 5548.65 8156.17 L 5548.76 8155.75 L 5548.88 8155.32 L 5548.98 8154.16 C 5549.39 8147.43 5547.98 8139.47 5546.47 8133.43 C 5543.49 8120.46 5535.7 8080.59 5529.77 8041.99 C 5522.27 7993.07 5501.4 7935.23 5468 7866.28 C 5357.32 7640.92 5211.82 7522.56 4966.94 7460.62 C 4924.02 7449.43 4866.66 7440.14 4841.06 7440 L 4780.29 7440 L 4774.39 7440 L 4784.24 7499.12 C 4793.81 7545.89 4851.68 7699.03 4887.11 7769.94 C 4926.96 7849.47 4995.15 7941.27 5054.36 7996.63 C 5137.04 8073.42 5313.59 8154.01 5437.5 8169.84 C 5484.49 8175.84 5510.33 8178.91 5523.7 8177.31 Z M 4861.89 7138.39 C 5089.02 7080.24 5305.78 6891.38 5395.47 6675.66 C 5430.84 6587.58 5444.48 6537.48 5468.65 6408.72 C 5492.48 6283.46 5526.95 6155.3 5557.58 6078.39 C 5598.01 5976.6 5699.79 5795.8 5772.18 5695.75 C 5843.25 5595.65 5944.49 5449.32 6016.58 5341.18 C 6076.36 5252.76 6113.61 5171.22 6157.04 5036.14 C 6212.39 4860.6 6223.89 4782.49 6224 4595.04 C 6221.61 4278.37 6152.66 4038.31 6004.1 3836.13 C 5785.84 3541.29 5452.26 3359.23 5099.9 3343.02 C 4975.6 3337.05 4799.55 3351.72 4745.73 3372.37 L 4722.71 3381.38 L 4710 3386.35 L 4710 3903.67 L 4779.27 3968.54 C 4932.93 4114.1 5013.63 4176.51 5053.86 4185.57 C 5076.28 4189.72 5155.45 4193.99 5231.96 4194 C 5365.01 4194.8 5377.57 4191.32 5407.18 4166.05 C 5422.64 4150.36 5439.14 4144.38 5473.39 4141.95 C 5495.92 4140.4 5507.05 4139.48 5514.7 4141.3 C 5521.82 4142.99 5525.45 4146.75 5533.73 4156.93 L 5533.91 4157.15 L 5534.09 4157.32 C 5551.63 4174.34 5554.48 4183.85 5554 4224.77 C 5555.42 4267.5 5554.4 4273.01 5531.81 4294.91 C 5516.62 4311.99 5498.4 4319.95 5476.54 4320.91 C 5454.66 4322.72 5435.58 4317.64 5417.64 4302.5 C 5389.25 4281.65 5368.45 4277.14 5280.58 4279 C 5241.81 4279.77 5204.35 4282.86 5184.83 4286.13 L 5182.5 4286.52 L 5180.16 4286.92 L 5177.19 4292.11 L 5169.8 4309.23 L 5168.6 4318.68 L 5167.63 4327.17 L 5170.35 4330.45 C 5173.47 4334.21 5177.54 4338.69 5181.99 4343.3 C 5193.85 4355.56 5210.81 4371.44 5228.78 4387.26 C 5264.69 4418.85 5307.75 4452.71 5328.09 4462.9 C 5354.37 4474.76 5401 4480 5497 4480 C 5624.57 4480 5634.03 4477.04 5680.02 4446.69 C 5702.57 4430.69 5721.07 4422.43 5739.39 4420.68 C 5757.31 4418.43 5772 4422.16 5789.7 4433.14 C 5816.47 4448.22 5831.35 4469.97 5836.89 4496.01 C 5843.44 4521.55 5840.26 4543.55 5822.08 4562.68 C 5810.86 4577.27 5790.98 4585.24 5762.81 4588.26 C 5734.13 4591.81 5702.93 4588.65 5670.7 4577.16 C 5643.32 4568.25 5596.68 4562.08 5558.68 4560.52 C 5539.57 4559.75 5521.09 4560.05 5507.81 4561.5 C 5500.83 4562.3 5493.52 4563.78 5488.57 4565.49 C 5485.54 4566.68 5481.62 4568.81 5479.23 4570.55 L 5478.9 4570.8 L 5478.2 4571.33 L 5477.38 4572.21 C 5474.76 4575.19 5470 4583.12 5470 4589 C 5470 4609.56 5688.6 4799.6 5755.89 4843.63 C 5785.25 4863.32 5801.64 4879.48 5810.04 4899.01 C 5819.19 4917.63 5819.35 4935.55 5811.71 4962.72 C 5805.33 4987.11 5795.1 5003.88 5779.9 5016.64 C 5765.54 5029.73 5750.91 5035 5731 5035 C 5712.44 5035 5693.62 5031.33 5689.02 5025.73 L 5688.85 5025.52 L 5688.49 5025.24 C 5665.28 5006.97 5640 4947.04 5640 4910 C 5640 4872.85 5623.82 4851.65 5526.86 4758.58 C 5473.59 4707.33 5428.17 4666.74 5395.13 4640.26 C 5378.42 4626.9 5363.98 4616.49 5353.44 4610.23 C 5347.81 4606.94 5341.68 4604.05 5337.18 4602.6 C 5330.9 4601.07 5319.74 4602.19 5312.64 4606.39 L 5312.11 4606.76 L 5310.69 4607.77 L 5309.37 4609.66 C 5303.7 4618.94 5301.71 4635.73 5304.55 4649.5 C 5307.44 4661.86 5313.19 4677.72 5320.19 4693.06 C 5334.14 4723.43 5355.92 4758.33 5375.93 4778.22 C 5399.3 4800.08 5413.94 4821.11 5421.34 4841.42 C 5429.18 4861.03 5429.55 4877.81 5423.8 4893.48 C 5419.27 4908.81 5410.94 4918.65 5394.34 4926.65 C 5377.36 4935.8 5356.85 4939.68 5327.9 4937.09 C 5291.36 4933.6 5282.23 4931.44 5267.8 4911.73 L 5267.63 4911.51 L 5267.44 4911.32 C 5247.23 4891.08 5247.9 4889.63 5252.94 4825.6 C 5256.89 4763.85 5252.66 4725.54 5224.45 4608.34 L 5188.02 4473.42 L 5177.97 4461.48 L 5178.14 4462.15 L 5086.78 4367.5 C 4840.39 4133.16 4767.71 4073.07 4740.28 4070.05 L 4711.86 4070 L 4706.71 4070 L 4698.09 4070.83 L 4704.01 4336.56 C 4708.02 4471.77 4714.37 4591.19 4718.82 4606.68 L 4718.93 4607.03 L 4719.13 4607.7 L 4719.56 4608.64 C 4731.03 4632.77 4839.49 4736.74 5109.74 4975.97 C 5283.6 5129.66 5450.44 5246.76 5528.5 5269.23 C 5559.18 5277.3 5575.97 5286.11 5586.29 5301.66 C 5597.7 5316.36 5600.68 5334.44 5598.08 5365.26 C 5595.45 5395.69 5590.53 5413.44 5580.25 5425.24 C 5571.96 5437.09 5562.42 5440 5542 5440 C 5520.27 5440 5500.74 5433.49 5481.48 5419.91 C 5461.81 5406.68 5447.3 5390.1 5438.43 5368.24 C 5429.28 5347.63 5406.62 5320.88 5387.44 5304.23 C 5377.55 5295.76 5366.27 5288.09 5358.02 5284.53 C 5352.88 5282.6 5344.16 5281.41 5337.73 5282.57 L 5337.34 5282.65 L 5336.79 5282.76 L 5335.85 5283.18 C 5332.89 5284.56 5327.24 5288.62 5324.06 5292.61 L 5323.8 5292.94 L 5323.44 5293.41 L 5322.99 5294.44 C 5321.76 5297.28 5320 5303.13 5320 5307 C 5320 5340.28 5352.23 5590.83 5360.42 5629.08 C 5367.04 5655.82 5383.33 5691.61 5396.01 5706.24 C 5425.35 5735.49 5432.59 5767.06 5423.04 5797.57 C 5415.13 5828.61 5393.33 5851.88 5352.94 5861.65 C 5312.96 5873.54 5293.14 5868.96 5266.58 5843.32 C 5252.89 5831.29 5246.7 5821.19 5244.98 5805.49 C 5242.58 5789.14 5245.85 5769.95 5255.05 5741.08 C 5272.51 5686.15 5272.96 5669.19 5255.92 5481.21 C 5242.43 5330.31 5236.35 5256.83 5222.92 5211.17 C 5206.97 5162.43 5183.59 5142.41 5141.73 5103.46 C 5101.06 5064.9 5056.18 5030 5044 5030 C 5036.4 5030 5026.86 5038.36 5024.01 5042.67 L 5023.86 5042.89 L 5023.73 5043.17 C 5022.3 5046.16 5020.56 5051 5019.54 5055.03 C 5017.75 5062.39 5015.99 5073.39 5014.5 5086.64 C 5011.58 5112.73 5009.03 5151.41 5007.02 5201.15 C 4996.06 5448.34 4997.73 5457.35 5033.38 5512.12 C 5052.31 5540.04 5060.73 5562.06 5060.5 5583.67 C 5061.38 5604.51 5054.52 5619.66 5036.84 5636.88 C 5013.71 5661.12 4987.83 5666.56 4958.98 5657.95 C 4929.35 5650.68 4905.24 5631.18 4891.6 5595.66 C 4880.29 5567.92 4880.02 5568.77 4898.12 5531.47 C 4916.87 5487.46 4920.95 5449.19 4926.99 5213.53 L 4933 4948.45 L 4933.19 4939.76 L 4846 4854.72 C 4800.43 4811.21 4749.32 4770 4735 4770 C 4728.16 4770 4718.47 4776.52 4714.17 4781.88 L 4713.97 4782.13 L 4713.7 4782.49 L 4713.3 4783.25 C 4711.25 4787.28 4708.8 4794.46 4707.48 4801.48 C 4705.33 4813.86 4703.72 4834.52 4702.64 4866.32 C 4700.5 4929.36 4700 5040.96 4700 5235 C 4700 5599.36 4703.94 5690.34 4715.9 5716.5 C 4740.88 5761.85 4995.89 5978.48 5070.73 6017.72 C 5088.54 6026.99 5110.73 6042.81 5119.14 6052.39 C 5135.47 6067.38 5137.1 6100.06 5130.43 6136.64 C 5124.23 6173.29 5112.21 6202.65 5092.48 6211.9 C 5083.4 6216.1 5061.17 6220 5040 6220 C 5013.76 6220 4996.15 6213.42 4981.92 6197.89 C 4966.77 6183.13 4960 6164.4 4960 6137 C 4960 6100.81 4950.67 6074.07 4927.27 6041.38 C 4891.75 5991.71 4770.47 5882.44 4737.13 5869.31 L 4714.84 5861.2 L 4686.7 5850.97 L 4695.01 6038.79 L 4701.32 6203.89 L 4788.21 6286.49 C 4847.19 6342.3 4891.16 6374.23 4937.18 6393.41 C 4997.64 6419.01 5014.86 6436.6 5024.35 6489.73 C 5029.59 6510.98 5028.65 6525.31 5020.43 6538.85 C 5013.06 6553.16 5000.7 6563.08 4978.03 6572.66 C 4947.63 6586.78 4927.14 6587.14 4908.71 6574.88 C 4888.95 6563.99 4876.35 6542.88 4868.59 6504.98 C 4862.32 6480.13 4851.06 6449.21 4842.25 6438.06 C 4823.5 6415.74 4743.83 6354.28 4717.95 6342.63 L 4710.85 6339.45 L 4705.55 6346.17 L 4703.24 6344.31 L 4703.29 6344.26 L 4698 6339.25 L 4691.3 6348.11 C 4690.03 6349.81 4688.42 6352.53 4687.57 6354.39 C 4686.52 6357.18 4685.19 6362.02 4684.52 6365.83 C 4683.42 6372.63 4682.54 6382.72 4682.02 6394.63 C 4681.01 6418.06 4681 6452.19 4682 6494.42 C 4684.13 6605.78 4690.55 6638.93 4707.83 6660.03 C 4716.58 6668.94 4720 6685.42 4720 6714 C 4720 6749.73 4718.32 6756.48 4696.88 6776.84 C 4681.85 6792.39 4669.54 6798.91 4652.14 6799.55 C 4634.24 6801.23 4615.93 6796.06 4590.5 6782.4 C 4565.69 6770.75 4553.78 6758.07 4550.36 6739.76 C 4545.35 6721.49 4549.75 6702.46 4566.02 6676.49 C 4582.24 6648.03 4588.86 6610.99 4591.99 6510.73 C 4594.49 6447.59 4595.23 6408.9 4593.44 6386.15 C 4592.38 6373.93 4589.86 6363.2 4586.69 6356.57 L 4586.55 6356.27 L 4586.38 6355.93 L 4586.02 6355.41 C 4580.08 6347.27 4568.31 6340 4560 6340 C 4537.56 6340 4462.31 6422.67 4412.48 6495.72 C 4360.73 6573.33 4351.93 6580 4307 6580 C 4284.61 6580 4277.13 6576.52 4256.03 6551.81 C 4238.24 6531.54 4231.31 6520.3 4231.75 6506.8 C 4230.63 6493.29 4236.92 6480.93 4253.81 6459.25 C 4279.08 6424.79 4303.28 6410 4330 6410 C 4351.06 6410 4411.95 6363.94 4464.52 6317.34 C 4517.06 6270.71 4569.01 6216.4 4577.74 6193.98 C 4589.11 6151.52 4601.16 5563.86 4593.01 5453.21 L 4592.97 5452.65 L 4587 5432.31 C 4587 5432.31 4570.79 5419.75 4566.93 5419.34 L 4566.64 5419.31 L 4566.28 5419.27 L 4565.6 5419.31 C 4560.6 5419.6 4552.92 5421.3 4547.14 5423.56 C 4537.01 5427.81 4523.51 5435.9 4509.64 5445.93 C 4482.48 5465.67 4447.65 5496.6 4413.57 5532.15 L 4376.49 5571.24 L 4371.08 5576.94 L 4369 5796.81 C 4367.06 5998.97 4369.96 6016.92 4392.77 6049.69 C 4407.16 6068.9 4412.22 6088.18 4410.54 6110.24 C 4409.6 6132.34 4402.23 6151.15 4386.04 6168.72 C 4374.5 6182.98 4369.2 6189.06 4360.25 6192.06 C 4350.9 6195.19 4337.6 6195 4310 6195 C 4282.43 6195 4269.19 6195.22 4259.87 6192.12 C 4250.95 6189.16 4245.85 6183.33 4234.25 6169.06 C 4214.97 6148.2 4207.4 6132.53 4209.22 6113.89 C 4209.6 6094.79 4219.25 6076.88 4241.75 6052.5 L 4277.86 6012.38 L 4282.95 6006.74 L 4284 5857.15 C 4284.49 5769.87 4281.03 5718.02 4264.03 5700.43 L 4263.74 5700.15 L 4263.33 5699.74 L 4262.46 5699.21 C 4254.94 5694.83 4241.89 5692.62 4232.66 5694.6 C 4225.41 5696.97 4216.13 5702.07 4208 5707.99 C 4192.59 5719.39 4172.47 5738.25 4147.15 5762.57 C 4093.08 5814.78 4070 5846.01 4070 5872 C 4070 5888.13 4064.43 5900.36 4050.93 5912.91 C 4037.67 5926.32 4021.67 5934.68 4000.36 5937.17 C 3953.1 5944.78 3919.06 5930.76 3898.29 5903.79 C 3887.62 5891.16 3882.26 5878.43 3881.18 5861.54 C 3879.45 5844.38 3882.42 5828.31 3892.69 5809.33 C 3906.48 5778.83 3917.44 5773.65 3972.35 5764.72 C 4005.25 5758.74 4037.17 5742.41 4067.23 5716 C 4089.92 5695.28 4154.57 5641.55 4212.39 5595.7 C 4270.77 5548.37 4376.64 5453.62 4446.99 5384.29 C 4553.72 5280.49 4580.49 5246.57 4589.51 5209.39 C 4595.76 5181.51 4599.24 5088.89 4599.5 5003.69 C 4599.63 4961.06 4598.99 4919.55 4597.57 4888.39 C 4596.68 4869.2 4594.93 4854.15 4592.63 4842.69 L 4591.72 4838.23 L 4591.27 4835.99 L 4576.56 4827.66 L 4530.46 4823.48 C 4530.33 4823.59 4530.06 4823.81 4529.53 4824.26 C 4518.61 4834.65 4508.3 4854.1 4504.33 4874.37 C 4495.86 4928.45 4479.05 4955.14 4448.54 4966.44 C 4430.48 4974.64 4413.25 4975.46 4393.93 4970.24 C 4374.31 4965.59 4357.86 4956.04 4342.6 4939.33 C 4328.32 4924.23 4319.7 4912.27 4315.73 4900.64 C 4311.22 4889.87 4311.46 4881.54 4316.04 4871.25 C 4323.88 4848.37 4350.14 4827.78 4401.69 4803.01 C 4500.09 4754.35 4586.64 4672.18 4598.65 4616.73 C 4602.82 4593.99 4604 4499.89 4602 4407.56 C 4600.49 4337.42 4598.94 4295.02 4596.25 4270.9 C 4595.19 4261.63 4593.61 4253.52 4591.81 4247.73 L 4591 4245.15 L 4590.18 4242.56 L 4564.57 4229.96 L 4555.18 4228.69 L 4550.08 4232.72 C 4530.44 4248.3 4463.14 4316.06 4389.36 4395.37 C 4285.87 4506.95 4239.47 4566.36 4231.6 4595.16 C 4226.28 4616.23 4220.01 4748.3 4217 4887.54 L 4213 5141.68 L 4212.88 5149.21 L 4251.56 5194.72 C 4274.99 5223.27 4280 5235.05 4280 5262 C 4280 5280.35 4275.91 5293.44 4266.74 5306.3 C 4258.14 5319.4 4247.71 5327.73 4233.21 5333.76 C 4218.65 5340.38 4204.22 5343.11 4188.9 5340.75 C 4173.39 5339.03 4159.34 5332.92 4145.34 5320.1 C 4127.25 5305.35 4102.23 5290 4092 5290 C 4073.68 5290 4040.07 5325.06 4016.56 5357.38 C 3993.21 5389.66 3970 5430.55 3970 5450 C 3970 5480.74 3962.63 5500.63 3944.59 5516.03 C 3927.25 5532.61 3903.81 5540 3869 5540 C 3837.99 5540 3832.34 5538.05 3803.55 5507.28 C 3782.55 5487.05 3772.53 5472.67 3770.67 5456.53 C 3767.52 5440.81 3772.06 5426.67 3785.99 5404.55 C 3797.13 5384.71 3811.64 5374.79 3843.79 5365.14 C 3898.25 5346.04 3951.39 5298.82 4056.35 5172.82 C 4092.86 5129.31 4113.27 5103.91 4124.64 5065.51 C 4134.7 5028.45 4136 4978.42 4138 4883.42 C 4139.5 4811.83 4139.99 4767.82 4138.6 4741.79 C 4137.83 4728.24 4136.19 4717.33 4133.98 4710.48 C 4132.39 4706.23 4129.2 4700.78 4126.2 4697.49 L 4125.94 4697.22 L 4125.61 4696.87 L 4124.91 4696.36 C 4121.07 4693.64 4113.1 4690 4108 4690 C 4089.95 4690 3995.66 4782.81 3911.17 4872.81 C 3826.69 4962.81 3740 5062.41 3740 5081 C 3740 5099.44 3734.67 5116.63 3724.12 5133.35 C 3713.95 5150.25 3703.19 5161.41 3689.07 5166.24 C 3642.4 5187.41 3604.37 5182.76 3577.59 5160.09 C 3563.66 5149.56 3554.02 5136.1 3548.89 5118.92 C 3543.72 5101.61 3543.43 5081.6 3549.47 5057.58 C 3554.16 5037.3 3558.55 5027.76 3568.89 5020.22 C 3578.88 5011.53 3592.46 5007.43 3617.76 5003.81 C 3658.17 4995.7 3683.47 4976.74 3806.35 4849.93 C 3880.05 4775.24 3924.4 4725.43 3941.57 4704.16 L 3930.44 4678.77 L 3932.48 4681.06 L 3928.79 4674.44 L 3927.72 4670.92 L 3920.24 4663.74 L 3916.78 4663.41 C 3910.05 4662.76 3901.41 4662.24 3891.73 4661.89 C 3867.36 4661.01 3833.73 4661 3797.45 4662.01 C 3669.17 4665.13 3655.43 4668.15 3616.83 4697.13 C 3590.21 4718.65 3561.66 4723.48 3531.93 4715.81 C 3501.89 4709.26 3477.96 4692.16 3462.99 4660.26 C 3450.52 4638.43 3449.89 4619.61 3456.82 4600.05 C 3462.87 4580.24 3475.2 4565.22 3493.76 4552.9 C 3512.04 4540.07 3531.5 4533.47 3553.84 4534.17 C 3576.38 4534.1 3595.52 4540.14 3614.11 4558.39 C 3641.53 4580.37 3657.33 4584.81 3828.34 4582 C 3926.75 4579.98 4024.43 4573.75 4047.39 4568.51 C 4073.27 4561.15 4116.14 4533.81 4151.41 4501.84 C 4181.98 4473.23 4223.6 4438.53 4242.39 4423.7 C 4252.66 4415.54 4262.1 4406.36 4267.88 4399.06 C 4271 4394.99 4274.13 4389.73 4275.76 4385.77 L 4275.9 4385.41 L 4276.07 4385 L 4276.23 4384.26 C 4277.37 4378.43 4276.51 4368.4 4274.08 4362.73 L 4257.34 4352.96 L 4252.48 4352.2 C 4225.33 4347.97 4159.25 4343.65 4085.47 4342 C 3928.99 4338.08 3912.88 4341.01 3882.18 4362.86 C 3864.94 4377.72 3841.66 4382.4 3814.71 4378.89 C 3787.46 4376.05 3763.22 4365.66 3744.17 4345.88 C 3732.88 4335.86 3730 4324.09 3730 4294 C 3730 4258.06 3731.32 4254.25 3763.14 4223.15 C 3788.31 4197.51 3805.97 4187.42 3828.37 4189.35 C 3851.6 4189.58 3875.49 4202.57 3910.28 4231.43 C 3943.98 4257.69 3955.33 4259.96 4162 4260 L 4378.89 4260 L 4445.59 4197.68 C 4479.04 4165.2 4527.4 4111.72 4551.98 4079.02 L 4596.03 4019.96 L 4600.03 4014.59 L 4599 3796.92 C 4598 3679.79 4594.98 3544.31 4590.95 3493.59 L 4583.96 3389.89 L 4492.58 3368.53 C 4265.72 3317.32 4065.96 3330.61 3841.24 3411.18 C 3698.07 3463.29 3544.14 3566.85 3433.44 3684.29 C 3325.37 3799.65 3197.21 3995.19 3160.12 4101.39 C 3107.63 4249.5 3072.11 4529.48 3084.06 4686.51 C 3111.75 5019.42 3193.79 5222.83 3419.13 5517.16 C 3662.02 5833.37 3774.15 6069.22 3840.37 6403.84 C 3870.68 6559.01 3913.77 6690.97 3959.69 6768.02 C 4003.68 6844.37 4152.96 6986.79 4239.79 7038.19 C 4330.42 7089.93 4489.35 7146.34 4585.42 7158.83 C 4669.49 7169.89 4765.2 7162.67 4861.89 7138.39 Z" style="fill-rule: evenodd; paint-order: fill; stroke-width: 30px; stroke: rgb(160, 131, 57); fill: rgb(73, 87, 1);"/><g transform="matrix(1, 0, 0, 1, 1237.236938, -6945.48291)"><g transform="matrix(1, 0, 0, 1, 0, -135.433594)"/></g></g><path style="transform-box: fill-box; transform-origin: 50% 50%; stroke: rgb(160, 131, 57); fill: rgb(4, 163, 141);" d="M 5369.566 4217.717 C 5369.566 4217.717 5444.455817717637 4324.9642607780825 5490.754 4369.048 C 5536.891671285069 4412.978905469096 5591.612392365049 4452.571666474801 5646.751 4481.893 C 5699.977081316208 4510.197299826437 5762.515284893336 4529.94945660536 5815.206 4543.621 C 5859.603562043728 4555.140737298465 5903.068631179885 4561.832983763576 5941.027 4563.474 C 5972.12179787309 4564.818290330807 6013.341160841724 4574.855947853243 6026.295 4557.488 C 6044.3814129241955 4533.238519002011 6008.592730534252 4445.83324662848 5990.088 4394.836 C 5972.133814290974 4345.356001632996 5940.242322005298 4294.91411211046 5918.05 4255.49 C 5901.110392146717 4225.397204890246 5890.39931673796 4203.650018356006 5870.413 4177.49 C 5846.6421027530705 4146.376357778106 5815.088509552247 4113.119124337313 5781.67 4083.47 C 5745.413608280862 4051.3030876958346 5706.419858387334 4018.224693220707 5659.35 3992.94 C 5605.8022173453655 3964.1755357874645 5532.870030292047 3940.9219145656584 5474.26 3925.64 C 5423.655664480624 3912.4454814473634 5371.6932605459515 3904.661101320389 5329.35 3902.05 C 5296.66980457738 3900.034772539518 5252.6493969790745 3891.6124431827 5241.96 3905.39 C 5232.655855135475 3917.3821062673883 5248.316006920352 3945.5854931058116 5255.96 3970.15 C 5266.723449016343 4004.7390969303956 5287.436423737438 4051.115684276729 5305.96 4091.63 C 5325.165793006082 4133.636443601114 5369.566 4217.717 5369.566 4217.717 C 5369.566 4217.717000000001 5369.566 4217.717 5369.566 4217.717" bx:d="M 5369.566 4217.717 R 5490.754 4369.048 R 5646.751 4481.893 R 5815.206 4543.621 R 5941.027 4563.474 R 6026.295 4557.488 R 5990.088 4394.836 R 5918.05 4255.49 R 5870.413 4177.49 R 5781.67 4083.47 R 5659.35 3992.94 R 5474.26 3925.64 R 5329.35 3902.05 R 5241.96 3905.39 R 5255.96 3970.15 R 5305.96 4091.63 R 5369.566 4217.717 Z 1@985eca50" transform="matrix(0.997431, 0.071631, -0.071631, 0.997431, -0.160615, 0.14801)"/></g></g><g><path style="stroke: rgb(160, 131, 57); fill: url(&quot;#color-5-0&quot;);" d="M 67.21 1046.19 C 67.21 1046.19 67.15832746913375 1035.4185089269322 67.21 1030.4 C 67.25708863010668 1025.8266859666855 67.43756158369801 1021.4116787234169 67.48 1017.29 C 67.51786709857386 1013.6122940884793 67.52500810678711 1010.3292088031706 67.48 1006.85 C 67.43499729795398 1003.3712089931787 66.08489469577853 999.3216892847445 67.21 996.416 C 68.2704784898867 993.6772154851602 71.46593706777281 991.8865082287084 73.63 989.725 C 75.75023520144109 987.6072677628899 77.83515582376081 985.6232028007595 80.06 983.57 C 82.37817381742143 981.4306677153351 84.97616621050757 979.1123628488252 87.28 977.147 C 89.32430257083386 975.4030389804166 91.1957090981392 973.8993857094431 93.17 972.33 C 95.12261505150097 970.7778446641368 96.76585143663587 968.7259906542444 99.06 967.78 C 101.52989239111494 966.7615414937388 104.76061778175236 966.9319316357444 107.62 966.709 C 110.47065465089334 966.4867488087428 113.33417056538099 966.5311926985636 116.19 966.442 C 119.04416959244529 966.3528591412979 122.020729776659 966.0657092507104 124.75 966.174 C 127.26537962988151 966.2738040950793 129.69830905743635 966.3029315543156 131.98 966.977 C 134.24661960668564 967.6466159969497 136.4193528894511 969.3480717404326 138.4 970.189 C 140.02376766266036 970.8784070666248 141.38855633489 971.5709458475714 142.95 971.794 C 144.511865472875 972.0171144081879 146.48217374876964 972.1036879349869 147.77 971.527 C 148.90972187486332 971.0166331288118 149.7502801602909 969.9867642505436 150.44 968.85 C 151.2592056350934 967.4998232670666 151.88044748209845 965.281105121491 152.05 963.765 C 152.18178663459742 962.5865899467019 152.11746787670415 961.6690355169959 151.78 960.554 C 151.359992486492 959.1662433354531 150.41092638375403 957.3354596725378 149.37 956.183 C 148.41146828006475 955.1217634233174 147.215870739932 954.229002757526 145.89 953.774 C 144.4754638499721 953.2885696865477 142.68924422466463 953.1261807963114 141.08 953.506 C 139.21460901270845 953.9462758192335 137.32042661249776 956.055390290291 135.46 956.718 C 133.8435903104987 957.2937006204572 132.20120592788808 957.2934744961309 130.64 957.521 C 129.1732046260912 957.7347663908139 127.88636546371708 957.9244035868293 126.36 958.056 C 124.61671626435877 958.2062981377676 122.48055787946777 958.4437539341963 120.74 958.324 C 119.2070033040725 958.2185266988171 117.60055501855632 957.9697784073804 116.45 957.521 C 115.57507250747601 957.1797311685788 114.90696117246728 956.8174984319676 114.31 956.183 C 113.62216997210908 955.4519188270765 112.63174046146364 954.2354108756497 112.71 953.239 C 112.79953195639284 952.0990671977315 114.3089601739697 950.860137797874 115.38 949.76 C 116.58198592823312 948.5253585608831 118.37107790976277 947.451753200754 119.67 946.281 C 120.84776586766313 945.2194481412171 121.72585721250624 944.047816605603 122.88 943.069 C 124.04145439643439 942.0839824941943 125.25087057346207 941.1760669806827 126.62 940.393 C 128.0862194910551 939.5544028245805 129.81973334690377 938.5956647161246 131.44 938.252 C 132.9449339025556 937.9327977986711 134.37736314309976 938.3252250586846 135.99 938.252 C 137.8285860455599 938.1685152585303 139.87270972524587 937.8489929682769 141.88 937.716 C 143.97224359788407 937.5773784513677 146.37664972126325 937.4290564421693 148.3 937.449 C 149.87125559525026 937.4652926260375 151.06275118190575 937.5248768118863 152.58 937.716 C 154.33248574111963 937.93675526306 156.34946978656592 938.262579389913 158.2 938.787 C 160.09730375324952 939.3246757345418 162.125007233506 940.1574387994168 163.82 940.928 C 165.2950626921048 941.5985787195273 166.41401045072865 942.6228684212001 167.84 943.069 C 169.27017196444743 943.5164400789125 170.94147897156435 943.8941878820557 172.39 943.604 C 173.8897141826028 943.3035563931796 175.4840739879223 942.3114938567409 176.67 941.196 C 177.9155609517569 940.0244129231243 179.09502290616518 938.2087870242415 179.61 936.646 C 180.06830486352928 935.2551946565299 180.20560123799706 933.670474465128 179.88 932.364 C 179.56231208120846 931.0892777159758 178.78922167910792 929.8259901304401 177.74 928.885 C 176.5090129634696 927.7809943593045 174.3987205717682 926.8195968338676 172.66 926.476 C 171.00448075628847 926.1488449759079 169.27001503239725 926.4484762838833 167.57 926.744 C 165.7903361365636 927.0533695457618 164.0432733915625 927.9931637241207 162.22 928.35 C 160.38703256340477 928.7087335157244 158.51804679482436 928.7522258262387 156.6 928.885 C 154.59550167760125 929.0237586628654 152.36693102804892 929.1102589962817 150.44 929.152 C 148.73805874996327 929.1888672957215 146.94842118673367 929.5670509853685 145.63 929.152 C 144.54299526913854 928.8098010205055 143.0877030576393 928.109418681395 142.95 927.279 C 142.78013143871442 926.2546071572303 144.89766633954582 924.5715546300931 145.89 923.265 C 146.86151182947984 921.9858604025214 147.59782203928404 920.6527002431866 148.84 919.518 C 150.27695116114265 918.2053790362081 152.74455174994318 917.3141187883338 154.19 916.039 C 155.41116347769326 914.9617366016232 155.9386435942133 913.6740416870593 157.13 912.56 C 158.53338464221284 911.247689941641 160.89569082210744 910.0709173395287 162.22 908.813 C 163.2474761401907 907.8370345122772 163.65871496728067 906.7356318586169 164.63 905.869 C 165.68028355381298 904.9318814841641 167.06817106226805 904.243641421658 168.37 903.46 C 169.73899853530042 902.6359255556883 171.34727174218952 902.0679848609515 172.66 901.052 C 174.0354039147714 899.9875073704045 175.5535572082934 898.6866114101402 176.4 897.156 C 177.2555319585161 895.6089527686045 177.79220629087953 893.5579352476996 177.74 891.804 C 177.68868328324425 890.0799511009509 176.89967950685772 888.1248636070735 176.14 886.719 C 175.4982122729367 885.5313070310573 174.79560387230816 884.4814125859534 173.73 883.775 C 172.5402656879946 882.9862985755948 170.7120407278293 882.6119396119805 169.18 882.437 C 167.67810825688323 882.2655030195315 165.94883555685172 881.957303162634 164.63 882.704 C 162.98054872756285 883.6378844726465 161.30447947132987 886.5079097007151 160.61 888.592 C 159.96750921564256 890.5200754382776 160.77328446106813 892.7100915540343 160.34 894.688 C 159.89770719196616 896.7070308197149 159.03741170826694 898.9242364457904 157.94 900.576 C 156.93796281545386 902.084211083341 155.41657448157986 903.0970924204722 154.19 904.323 C 153.0082555460428 905.5041019264849 151.9400186557787 906.6109685670799 150.71 907.802 C 149.3668271273216 909.1025990630222 147.82328762906306 910.5670979349015 146.43 911.816 C 145.15191247713548 912.961640077028 143.94821883589427 913.8537287169873 142.68 915.028 C 141.27567260260668 916.3282971474899 139.79188081934157 918.0877961088358 138.4 919.31 C 137.2147768854947 920.3507387488328 136.0590742824938 921.120673519298 134.92 921.986 C 133.8308690533147 922.8133857672001 132.87976038446712 923.8141701171191 131.71 924.395 C 130.5569333301314 924.9675408277684 128.9207346789184 925.7794123789017 127.96 925.465 C 127.1105138054149 925.1869950719544 126.3105802525767 923.9541412496383 126.09 923.057 C 125.87150980107761 922.1683593904932 126.3377599553772 921.1214718000618 126.62 920.113 C 126.93508875953708 918.9871564687107 127.48085498275375 917.8105388883542 127.96 916.634 C 128.46113830275246 915.4034566771857 128.99436002291026 914.1278385692069 129.57 912.887 C 130.15331397143459 911.6296195147661 130.52710013146594 910.1573447415136 131.44 909.14 C 132.38180565393375 908.0904423622102 134.2105625898752 907.7933933856386 135.19 906.731 C 136.1794636046954 905.6577312254032 136.75318112506966 904.1278609909149 137.33 902.717 C 137.91901502988637 901.2763080170453 138.81702108362853 899.6076919829549 138.67 898.167 C 138.52602313736202 896.7561390090852 137.49037543075792 895.1512011090026 136.53 894.153 C 135.66186575803172 893.2506731230915 134.54939438201734 892.6115956586557 133.32 892.279 C 131.9200279965504 891.9002569234107 130.10120606572158 892.1465343742613 128.5 892.279 C 126.88779747226666 892.4123753482613 124.9153907886452 892.2109541494727 123.68 893.082 C 122.36776723537152 894.0072253740766 121.43500421545777 896.0784637111581 121 897.9 C 120.51112634623462 899.9471091298627 121.33950403048767 902.7224143906577 121.27 904.858 C 121.21044434283444 906.6879112081014 120.95215395840778 908.1877020285882 120.74 909.943 C 120.51125480498023 911.8355688674475 120.25759338820822 913.9458042807214 119.93 915.831 C 119.62368718585319 917.5937327863617 119.28172890794094 919.1652865439374 118.86 920.916 C 118.4030501362559 922.8129253948191 117.78660577389321 925.0010834424611 117.26 926.803 C 116.80838541842641 928.3483149823007 116.27120895500059 929.5827595174668 115.92 931.085 C 115.54381742641945 932.694061166607 115.77435110843166 934.6487891680295 115.12 936.17 C 114.47071023364762 937.6794444143762 112.99515602676622 939.1398614881834 112.027 940.185 C 111.31611809263681 940.9524073581096 110.72770671712581 941.2667350683371 109.996 942.013 C 109.00667659909554 943.0220072195436 107.9190773854844 944.5473926500068 106.728 945.791 C 105.44926996704496 947.1261257332397 103.94817206522774 948.3486237260382 102.54 949.742 C 101.03719633616647 951.2290135698008 99.49180271265676 952.9394517695921 97.99 954.464 C 96.54966114805173 955.9261534702393 95.20521399328985 957.3436708144258 93.71 958.714 C 92.18588912201959 960.1108125148108 90.8001946771412 961.1493205562361 88.924 962.76 C 86.20328058938534 965.0956887642407 81.60020391989123 969.1667387608959 78.99 971.42 C 77.30370495610676 972.8756959443443 76.32667709509093 974.0786282586754 74.809 974.994 C 73.35110054010008 975.8733174592948 71.58437684228868 976.3442893759725 70.092 976.868 C 68.7802245808221 977.3283332776917 67.06897064712457 978.5007839410293 66.342 978.015 C 65.52651075521389 977.4700652343856 65.86563930756614 974.9402243851579 65.87 973.103 C 65.87557645918069 970.7535550563322 66.58599410144167 967.7966521652284 66.68 965.074 C 66.7768659479649 962.2685134613022 66.38552441421015 960.2299849308484 66.41 956.51 C 66.45580111252661 949.5487999748774 66.45396417598678 931.8257351105249 67.75 926.536 C 68.24795112587181 924.5036259675499 68.26126998616807 924.359349941769 69.62 922.521 C 74.73232763152043 915.6040649886031 108.33030822448964 887.6161697645981 116.19 880.534 C 118.85328871243915 878.1341778018315 119.60114772623105 877.2367869240643 121.54 875.716 C 123.59524794437307 874.1039152415067 125.96302357855282 872.7347979137435 128.23 871.167 C 130.5996000369572 869.5282295393985 133.1118469967671 867.5668973693937 135.46 866.082 C 137.55943931963807 864.7543812636399 139.50423712960395 863.8281270727753 141.61 862.603 C 143.8659965958502 861.2904673570702 146.54759401228145 859.236064115681 148.57 858.44 C 149.96072450032432 857.8925798102708 151.27186319623448 858.2993683277966 152.32 857.637 C 153.44083763291866 856.9286885028932 154.41099194846726 855.4746150848275 154.99 854.158 C 155.5842755844247 852.8066678433453 155.78271400072617 851.1469187250998 155.79 849.608 C 155.7974906628903 848.0258530697057 155.63508956862785 846.124382385716 154.99 844.791 C 154.40801124087636 843.5880452510172 153.5085812170203 842.4331133804204 152.32 841.847 C 150.93736761047828 841.1651960709986 148.68533669400338 841.0023760398756 146.96 841.406 C 145.0964504435545 841.8419573725375 143.07582752356956 843.1766499509052 141.584 844.641 C 140.00741839519108 846.1885430731292 139.1386584623718 848.9225244892167 137.86 850.577 C 136.81493332520998 851.9292275662016 135.761742164968 853.062940248623 134.65 853.984 C 133.6791648821501 854.7883206243785 132.6512312428963 855.7711977429718 131.642 855.906 C 130.73991140358407 856.0264912944302 129.52074637940981 855.8595201855829 128.92 855.055 C 127.79518452778372 853.5486459320107 128.54426324781627 848.2376396647393 128.77 845.058 C 128.97837658156402 842.1228889135942 129.69311465483997 839.3932432186276 130.1 836.643 C 130.49018389936026 834.0056461704805 130.75026320368215 831.3669867814954 131.17 828.882 C 131.56173187720574 826.5628120105595 131.88630238917375 824.3738869380085 132.51 822.191 C 133.13535835784754 820.0023005930691 133.9413143292007 817.7382661614953 134.92 815.768 C 135.83629294929924 813.9233413461682 137.6433592687275 812.5224295503697 138.13 810.683 C 138.61179172737545 808.8618989628125 138.5885666204333 806.5163892445037 137.86 804.795 C 137.11000856513232 803.0229902026209 135.32249528618095 801.1373750182552 133.58 800.246 C 131.84361684750937 799.3577516491873 129.3116379528931 799.2957736758816 127.43 799.443 C 125.78459155173827 799.5717428525442 124.1148901348881 799.7847716132931 122.88 800.781 C 121.41156469887063 801.9656373128247 119.91984078464728 804.4664415965268 119.67 806.669 C 119.3822778958241 809.205514361786 121.6381932669336 812.4747548680454 122.07 815.233 C 122.45935241237558 817.720060330031 122.38116332675531 819.7589661116681 122.34 822.459 C 122.28741153668733 825.9084450344977 122.01219115591837 829.6112359510395 121.54 834.234 C 120.8578859725084 840.9119145777252 119.04409617564305 852.912055904768 118.207 858.636 C 117.75160257472703 861.749942554298 117.90772964755907 863.6906206485609 117.084 865.838 C 116.31104035327492 867.8530271266695 115.00078993708213 869.5497337391548 113.578 871.214 C 112.06092107230839 872.988558006486 109.8876526608139 874.556084941354 108.16 876.102 C 106.58705618366541 877.5094805585807 105.08933846276771 879.1997251966391 103.636 880.117 C 102.53107180810181 880.8143756051437 101.41994403715998 881.5671040989432 100.416 881.479 C 99.45356310029342 881.3945384835214 98.31705595407402 880.749346573889 97.72 879.731 C 96.75961074284747 878.092947313401 97.26420647663457 874.025059634386 97.18 871.435 C 97.10597901759854 869.1582302516626 97.27557996733958 867.380936848281 97.18 865.011 C 97.06114102978854 862.063852589371 96.5051144796222 858.2112548318795 96.38 855.109 C 96.26941440370534 852.3669936272976 96.33382698658517 849.9119467879168 96.38 847.348 C 96.42538653907914 844.8277254395955 96.16072430027118 842.0709561785555 96.65 839.854 C 97.06963288324894 837.9526022527598 97.96416116424717 836.3608573199456 98.79 834.77 C 99.58030199977325 833.247599179311 100.93683834674412 832.0225240408726 101.47 830.488 C 101.99226019081078 828.9848521019923 102.37530213118193 827.1643740878162 102 825.67 C 101.6114931865707 824.1230476469706 100.35546922522958 822.4140823037927 99.06 821.388 C 97.7674045047472 820.3641938471322 95.8656833872645 819.6389389101631 94.24 819.515 C 92.65149030556692 819.393895139205 90.82880892279782 819.8109843335103 89.42 820.585 C 87.96117833080878 821.3864932389313 86.52751880843817 822.8785026599285 85.68 824.332 C 84.85636673599033 825.7445335585634 84.3420685041663 827.352404505762 84.34 829.149 C 84.33737507790325 831.4288712657207 85.95386271447836 834.108693523959 86.48 836.911 C 87.08059407849339 840.1098774069968 87.27959016210097 843.935468828726 87.55 847.348 C 87.80933780131643 850.620803747667 88.00003761753504 853.770156697766 88.09 856.983 C 88.179887210261 860.1931586633283 87.99586490618638 863.4768152343177 88.09 866.617 C 88.18021277656393 869.6263430107673 88.48758364011685 872.4399590874772 88.62 875.449 C 88.75820074998079 878.5894858976677 88.944505131848 882.164677208475 88.89 885.083 C 88.84453694623451 887.517190350113 89.23648911194084 890.1084643760129 88.452 891.774 C 87.82914947101523 893.0963634702554 86.53820849175244 893.5212656556297 85.376 894.673 C 83.76549888742046 896.268986826948 81.61696996676095 898.7457648427429 79.756 900.529 C 78.06040298187723 902.1537700227638 76.3470566568082 903.6452508134688 74.7 904.983 C 73.22322886358397 906.1824422767831 71.76948631855016 908.2400245496715 70.362 908.227 C 69.0090814189928 908.2144804074271 67.14063657908807 906.6490595593939 66.41 905.156 C 65.50010948698997 903.2966341164205 66.41 900.04492192535 66.41 897.394 C 66.41 894.6094921457568 66.4167401000251 892.3220423930154 66.41 888.83 C 66.39938482074115 883.3302810279896 66.34036716526485 873.995422030156 66.328 867.588 C 66.3177804985225 862.2932814851432 66.32800000000002 858.1197901096828 66.328 853.083 C 66.328 847.6074754264172 66.328 841.5005616562389 66.328 835.941 C 66.328 830.6740577576265 65.56203438529762 824.850296170593 66.328 820.556 C 66.91057466351198 817.2898636375002 67.84175611305422 814.8138502180236 69.405 812.205 C 71.10990847288804 809.3597300594956 73.71265205750383 806.800700681264 76.438 804.293 C 79.47972312517513 801.4941899712769 83.69805320835822 798.8847573056496 86.987 796.381 C 89.90612511411209 794.1587746818104 92.52378221542416 792.1175475569815 95.207 790.03 C 97.79446870612826 788.0169453730912 100.56798989265322 785.8576750895439 102.811 784.073 C 104.61035812323352 782.6413213779622 106.62551604365629 781.7278825947842 107.646 780.166 C 108.56229120318183 778.7635876709211 108.8688525395912 777.0206362073108 108.965 775.331 C 109.06826555058865 773.5162748632089 108.53278142642702 771.4651591377764 108.086 769.617 C 107.64787804453047 767.8046616896612 107.54858746033169 765.3730212224418 106.328 764.343 C 105.08327127819351 763.2926066104965 102.5585372097829 763.5422159833815 100.614 763.463 C 98.6052153755998 763.3811667243891 95.92869750513228 762.9211121978926 94.46 763.903 C 93.02407915570613 764.8629751867737 92.40926003388464 767.301501122412 91.823 769.178 C 91.22113142517811 771.1044586358122 91.40399623968818 773.3786356150117 90.943 775.331 C 90.50698443892065 777.1775687558055 90.16519516927283 778.8745117519262 89.185 780.606 C 88.00158905250544 782.6964634224516 85.97142287965043 784.6489424306096 83.911 786.76 C 81.42198873220705 789.3101784750438 78.01880189637787 792.4520779432713 75.12 794.672 C 72.60527046352287 796.5977968513504 69.73856400584896 798.5988869079476 67.647 799.507 C 66.31235713444345 800.0864738559455 64.73954067617875 800.9212963198346 64.131 800.386 C 63.25415609929156 799.6146936083452 64.74188567546733 795.6705269257224 65.01 792.913 C 65.34090721414432 789.5096549735483 65.74404262674031 785.2597881028563 65.889 781.485 C 66.03093641740233 777.7888796321697 65.56479501474149 773.3582883800759 65.889 770.496 C 66.10130535487234 768.6216329238907 66.20263839044198 767.5033357204624 66.943 765.903 C 67.93897353564218 763.7501438751736 70.06788133757287 761.026838573459 72.043 759.068 C 73.97690869312775 757.1500317190505 76.50719895998522 755.921981186726 78.636 754.233 C 80.75560528931666 752.5513146805887 82.79136438210314 750.3370245688164 84.79 748.958 C 86.43747311237215 747.8212715848344 87.98511303381079 747.2463199951413 89.625 746.321 C 91.35171229184833 745.3466880855536 93.46451353068494 744.6962212394574 94.899 743.244 C 96.44909208484516 741.6747438955476 97.91553510998224 738.9390996299935 98.416 737.042 C 98.78878891222288 735.6288784772925 98.88591289220913 734.321818651203 98.416 733.086 C 97.87243279272856 731.6564786906989 96.3262492360261 730.1477925502714 94.899 729.13 C 93.41616026598751 728.0725650430008 91.33902395170033 726.904742713854 89.625 726.932 C 87.97245541230639 726.9582796098334 85.94867530124591 727.8429556965531 84.79 729.13 C 83.46458699120534 730.6022547903192 83.37613733065447 733.699239664165 82.592 735.723 C 81.89947922627428 737.5103094658537 81.46649722469556 739.1241690402866 80.394 740.678 C 79.17636430349464 742.4421071690601 77.29940761871785 744.0598515856905 75.427 745.592 C 73.38455937256258 747.2632825441249 70.4269599805715 749.344885489433 68.526 750.228 C 67.34660606202607 750.7759020657693 66.22620348911173 751.5036532620137 65.449 751.107 C 64.463553333066 750.6040678329987 64.00608419226592 748.2774482036232 63.691 746.272 C 63.21227610876049 743.2250176654892 64.06410614381724 738.0138590799265 64.131 734.404 C 64.18709414997228 731.376936108585 63.80540790584571 728.6981838545844 64.131 726.053 C 64.434357919031 723.5884516157236 65.08512950776716 720.9120442382656 65.889 719.02 C 66.49702380613567 717.5889138359439 67.77135710826745 716.827717488623 68.087 715.503 C 68.42851083397042 714.0697176858268 68.27105403192361 712.109078428897 67.647 710.668 C 66.99542371201345 709.1633666103176 65.53597960524502 707.6659498214323 64.131 706.712 C 62.745799427417154 705.7714797006804 60.93526400969381 704.9162355057548 59.296 704.954 C 57.56832125201219 704.9938013460616 55.52346839710163 705.9833606672321 54.021 707.152 C 52.40711293255143 708.4073022142128 50.29210856114884 710.4694491855819 50.065 712.427 C 49.81996265583513 714.539087057425 52.36087587834622 716.7982701001937 53.142 719.459 C 54.08255203984683 722.6627865242799 54.6319287994062 727.0753452326971 54.9 730.448 C 55.12603227113122 733.2917549990688 54.9 735.7603015415103 54.9 738.36 C 54.900000000000006 740.8865466910651 55.08766012149496 743.5655473155692 54.9 745.833 C 54.74126621555601 747.7509426229722 55.09782741536066 750.4447611099961 54.021 751.107 C 52.756875696667215 751.884424741908 48.857417912605115 750.1714903746237 46.988 748.909 C 45.266688008852256 747.7465312946903 44.37242482816613 745.7634917808091 43.032 744.074 C 41.5921071612873 742.2591372302769 40.04044573209297 740.2824059083928 38.637 738.36 C 37.25899004136499 736.472435396876 36.09739516857184 734.4275006742378 34.681 732.646 C 33.30755771317613 730.918524211961 32.043915903618725 728.6712774832507 30.285 727.811 C 28.637805317666345 727.0053648398276 26.39578612644615 726.6959723095856 24.571 727.371 C 22.243361880209072 728.2320434731785 18.401864692161514 731.5358652654168 17.978 733.965 C 17.579115877645926 736.2509730819827 20.01893266161765 739.4513745950985 21.494 741.437 C 22.742290009818053 743.1173547144482 24.045064684905352 744.3968978260278 25.89 745.393 C 28.11938004042332 746.5966683815996 31.69588341945447 746.1799706412543 34.241 747.591 C 37.01548409386674 749.1291922155332 39.24113650096864 752.2250067661037 41.714 754.624 C 44.22334219923361 757.058382229286 47.151369137501234 759.2202045913855 49.186 762.096 C 51.281308037315696 765.0575579633668 53.264480111425485 768.5707036032097 54.021 772.206 C 54.814043408040284 776.0168024485378 53.51892457351272 779.8628695698546 53.581 784.513 C 53.66233160573795 790.6056295021438 54.60288605749439 799.3427431725801 54.9 805.612 C 55.138597534571815 810.6465305575541 55.2666762199728 814.6954081487742 55.34 819.238 C 55.41330467839244 823.7794084571013 55.434424853177774 828.7114513710874 55.34 832.864 C 55.26041340573112 836.3640022958867 56.393907301488966 841.2049770120468 54.9 842.534 C 53.70734259761652 843.5950223960621 50.76940303889769 842.903391561873 48.746 842.095 C 46.211511413736 841.0824191412128 43.655840985647 838.0299174176572 41.274 835.941 C 38.974940748833646 833.9246836535575 36.14782886947039 832.3670842291085 34.681 829.787 C 33.10993508183155 827.0235693758566 32.835243557691875 823.4467124422796 32.483 819.677 C 32.04730644141205 815.0142052008774 32.76818567586261 808.8880038023755 32.922 803.854 C 33.06243088602084 799.2580066283527 33.194427629681925 794.562212181263 33.362 790.667 C 33.49541503100165 787.5657736287629 33.10778784038067 784.5871247227288 33.802 782.315 C 34.345450788661374 780.5363103654349 35.96480749427141 779.6319854061475 36.439 777.92 C 36.99447028074137 775.9145760367577 37.24236444259773 772.8261813682029 36.439 770.887 C 35.68372703484574 769.0639030538634 33.855460396737314 767.4479470982484 32.043 766.492 C 30.098532948184964 765.4664285507317 27.28595780648481 764.9504731041412 25.011 765.173 C 22.744468303649423 765.3947026888661 19.801801809413565 766.3067904496345 18.417 767.81 C 17.14643994626493 769.1891995317337 16.635119603481982 771.4688306833966 16.659 773.524 C 16.68720535502065 775.9513793007845 18.005154194787092 779.231842284782 19.296 781.436 C 20.43863298929244 783.387079911203 22.84432457566783 784.078598223816 23.692 786.271 C 24.855352099188227 789.2798582674162 23.692000000000007 794.3394462989002 23.692 798.579 C 23.692 803.1112275192554 24.648077748976327 809.4869575834512 23.692 812.645 C 23.136156140870806 814.4810206437058 22.344829339145104 816.3050321076696 21.055 816.601 C 19.313196060506968 817.0006792638985 15.851432203734428 813.9611121744722 13.582 812.205 C 11.30825617076102 810.4455514411989 9.215299718503662 808.2312329968113 7.428 806.051 C 5.7226134884987685 803.9706886195424 4.340011968306533 801.5519398806376 3.033 799.458 C 1.8855696683194436 797.6197229298427 1.3668060431492888 795.5056344828587 -0.044 794.183 C -1.4304026210038974 792.8832437914344 -3.457512269018585 791.7189358497707 -5.319 791.546 C -7.258068183447834 791.3658567745106 -9.614580728093085 792.1200092149368 -11.472 793.304 C -13.64096577616591 794.6865825600815 -16.8648792230871 797.5908851550001 -17.187 799.898 C -17.481136889702665 802.0046867874798 -15.579458156386757 804.7805978530064 -14.11 806.491 C -12.73834754274766 808.087559451262 -10.816331256209134 809.2699710355824 -8.835 810.007 C -6.739988104503306 810.7863166553757 -4.170387955640117 809.8329801839438 -1.802 810.886 C 1.3779684213674543 812.2998603239213 4.735152678211785 816.4757895388404 7.868 819.238 C 10.882089189814762 821.8955022131057 13.799821236859632 824.995873037326 16.659 827.15 C 19.053227648292612 828.9538292668004 21.238790990293346 829.6376219971181 23.692 831.545 C 26.878328087652196 834.0223804760642 30.566573655116052 838.0515808417202 33.802 841.216 C 36.851917355292194 844.1989814934641 39.545697089717784 846.8969493181849 42.593 850.007 C 45.966022158961586 853.4494768964909 51.060792914077794 857.0303144366085 53.142 860.995 C 54.90799336089908 864.3592055278218 54.9197373261596 867.8040747905657 55.34 871.74 C 55.8410431227084 876.4324658801141 55.588817663175405 882.6216159927344 55.511 887.328 C 55.44653127726647 891.2270449373676 55.91775829756749 895.389655117973 55.04 898.017 C 54.445246402231525 899.7972427222786 53.49972591064974 901.5659606799819 52.263 902.069 C 51.08154425606882 902.549558132518 49.021349317319476 902.2089941259152 47.867 901.19 C 46.16634695297809 899.6887599168344 46.6026157657723 894.2612012702507 44.79 891.959 C 43.11666095756399 889.8336939413189 40.16313447652236 887.6502981462602 37.758 887.564 C 35.32933646556222 887.4768576123464 32.072267861589985 889.745384335451 30.285 891.52 C 28.71920124048675 893.0747143580882 27.061518634312392 895.2787061473227 27.208 897.234 C 27.37848853327052 899.5097514547399 30.248564153424805 902.3267101376001 32.483 904.267 C 34.86999726420043 906.3397677639093 38.471841038427044 907.179232355263 41.274 909.102 C 44.19714841866471 911.1077874222159 47.2206297395886 913.6149020992669 49.625 916.135 C 51.8568048220139 918.4742265074185 54.199463135806816 920.375264211309 55.34 923.607 C 56.87991908871435 927.9703939304599 55.936405901014616 935.0671849747874 55.779 940.75 C 55.622862769698585 946.3870122888188 55.22014177709497 953.6054054960666 54.414 957.568 C 53.956451771885106 959.8170809253755 53.7761302791037 962.3978309203087 52.702 962.727 C 51.46502504281453 963.1060731126188 49.47213690269685 960.6150177354962 46.988 958.332 C 41.05867542777015 952.8827217644814 22.849750391646264 936.2160801278729 19.296 928.003 C 17.418533392270227 923.6639829089469 18.594146636289263 921.6645719463653 18.417 916.574 C 18.06195729263465 906.3713199845331 16.188516519699913 878.8202504083825 18.748 870.53 C 19.819832180863237 867.0583006342837 22.44570848371088 866.2044509528145 23.252 863.828 C 24.005216690577104 861.6079809549826 24.415000446945392 858.8407685502939 23.692 856.795 C 22.96343608062745 854.7334893060186 20.814605026263564 852.381203955843 18.857 851.52 C 16.97778699583522 850.6932828372696 14.276981859611013 850.834924556023 12.263 851.52 C 10.157142901526077 852.2363276966992 8.538082805475511 855.627024779066 6.549 855.916 C 4.716019513665185 856.1822965762653 2.626671557286285 855.1520877130191 0.835 853.718 C -1.743336702137286 851.6542506651822 -4.747301505710773 846.4484302780993 -6.198 843.169 C -7.294967760013346 840.6892088508066 -6.776164805296802 838.1180877156738 -7.956 836.136 C -9.128179585592079 834.1667734778587 -11.111509200725783 831.9931134246893 -13.231 831.301 C -15.466542933556143 830.5709900955865 -18.87537303781542 830.9520418416548 -21.143 832.18 C -23.64356098194412 833.5340958497245 -26.799893014497396 836.9803943144198 -27.296 839.653 C -27.75645750504181 842.1335563757502 -26.370437721041522 845.8845081509427 -24.659 847.564 C -23.050227697789595 849.1427427934608 -19.94402481144896 848.3996153896868 -17.626 849.762 C -14.652372085979207 851.509705584017 -12.122922687094142 854.627743861079 -8.835 858.114 C -4.0307912813392175 863.2080072903274 4.874647696613275 870.6397356176727 7.868 877.894 C 10.602790835568731 884.5216514559066 9.51114729155083 892.9181324498531 9.626 899.432 C 9.721170565858538 904.829595485956 10.465637653888885 911.81011732787 8.941 914.254 C 8.176553931321047 915.4793511490138 7.03194089178686 916.2270456073036 5.67 916.047 C 2.7067585362961353 915.655265959164 -2.925996883301553 907.7319001940941 -7.077 903.827 C -10.972644041244859 900.1623192601603 -15.03847004119764 897.0500430215176 -18.505 893.278 C -21.91340358257598 889.5692061626569 -25.53033853135847 885.0927811531916 -27.736 881.41 C -29.409758670823205 878.6153341024741 -29.853163220577525 875.8477270932115 -31.252 873.498 C -32.5284522269176 871.353851072191 -33.82605658624512 868.6810510882603 -35.648 867.784 C -37.27002367359477 866.9853812884652 -39.44932576987312 867.3058634399549 -41.362 867.784 C -43.54919553555515 868.3307622938838 -46.422574858714604 869.4560903049124 -47.955 871.3 C -49.614138132742674 873.2963786850219 -51.204384731031546 877.1507492892653 -50.593 879.652 C -49.94148803316213 882.3174162058573 -46.153944454325405 885.1453520355982 -43.56 886.685 C -41.26448093004217 888.0475161700792 -38.62180538442397 887.4508956308741 -36.087 888.882 C -32.65115012211942 890.8218174716328 -28.62932051198417 895.4138507088293 -25.538 898.553 C -22.879284696616917 901.2528508332231 -20.990913993996017 903.8285793140492 -18.505 906.465 C -15.879285874522186 909.249684849324 -10.788785730927284 912.2990702025184 -10.154 914.816 C -9.75829183829553 916.3849855880121 -10.328849829892766 918.3613129619309 -11.472 919.212 C -13.054150644638328 920.3893737876807 -17.036615392117312 919.2120000000001 -20.263 919.212 C -24.21457291652648 919.2119999999999 -29.572587944694067 919.6158774705129 -33.45 919.212 C -36.56943772367968 918.887074353901 -39.435120524807964 918.525830595045 -41.802 917.453 C -43.88219346602747 916.5101149830998 -44.99478410378108 913.8188629939731 -47.076 913.497 C -49.54971160301695 913.1144369875707 -53.728526646348136 914.734771841937 -55.867 916.574 C -57.90454349296739 918.3264218195865 -59.91014238765332 921.6183364655623 -59.823 924.047 C -59.736701853739895 926.4521344765222 -57.431644741714784 929.6222886066821 -55.428 931.079 C -53.55457300090467 932.4410390867275 -50.89135524673894 933.133723470451 -48.395 932.838 C -45.26412494868852 932.4671099846738 -41.87249907347231 928.4426401383207 -38.285 927.563 C -34.69363477818659 926.6824118978776 -30.99988793169346 927.6748711000856 -26.857 927.563 C -21.91106473876514 927.4294440777184 -15.82507219538508 926.2017641346113 -10.593 926.684 C -5.58457301046205 927.1456226675285 -0.2844540420797264 928.118194001137 3.912 930.2 C 7.8280675761702385 932.1427099380276 10.868627709066793 935.6322043979814 13.992 938.405 C 16.90363219899036 940.9898218540881 21.475908014253115 943.9978889966225 22.11 946.258 C 22.46820890261406 947.5347735604673 22.06598749981104 948.9863446209764 21.201 949.746 C 20.013508694901425 950.7888869291854 17.120922839264303 950.3454095277866 14.461 950.596 C 10.629939815795368 950.9569229435031 4.928753463928906 951.4468798854051 0.396 951.475 C -3.8427164773838878 951.5012959797015 -8.60424930102029 951.8264439397066 -11.912 950.859 C -14.420515462405582 950.1253146946012 -15.749574644983683 947.8118320505022 -18.066 947.343 C -20.645056045050435 946.8210129084052 -24.5074763011505 947.0396220716804 -26.789 948.392 C -29.024434099951876 949.7170582224995 -31.442125422010434 952.6405032883388 -31.692 955.255 C -31.98509059426625 958.3216760944364 -29.15634995124899 964.0868362039641 -26.857 965.804 C -25.174062255649734 967.060824679519 -22.81657792564671 966.9472577807582 -20.703 966.683 C -18.2932449529992 966.3817115955534 -15.552718495897693 964.7091691607026 -13.231 963.606 C -11.10654081361397 962.5965589925163 -9.93039361783089 961.0896100143043 -7.282 960.383 C -2.8685394377650772 959.2054577305978 5.073003475466382 959.7786716910956 11.502 959.914 C 18.298298324529917 960.0570598936491 26.005543704510554 958.2923630350037 32.453 961.321 C 40.21435581304611 964.9668299268075 49.652534834632746 974.6205079301577 53.406 983.386 C 57.17911088953303 992.1973708596521 54.85341343170047 1004.9792159160597 54.931 1014.096 C 54.99324547158092 1021.4101335806413 54.68493033120675 1028.1994193105406 54.286 1033.876 C 53.98306299587634 1038.1866432707911 54.61543302207292 1043.2253633482899 53.059 1045.222 C 52.05814074473838 1046.505930785275 50.582174224595576 1046.2932020545106 48.633 1046.859 C 45.06345459478285 1047.8951523516566 38.23837340281084 1049.4426741731563 33.157 1050.17 C 28.32030449521991 1050.8623036900335 24.633676181074975 1051.4525492284047 18.857 1051.224 C 9.872083309129131 1050.8685194931115 -6.422975043136258 1048.758162688134 -15.428 1045.949 C -21.751170073108813 1043.976455390164 -25.563259895623858 1041.2568356565675 -30.813 1038.477 C -36.52970121311606 1035.449899695184 -42.98720412381941 1032.3805698078672 -48.395 1028.367 C -53.83493665279128 1024.329575880032 -58.734182110989835 1019.5134827329006 -63.34 1014.301 C -68.1442681599999 1008.8639277075904 -72.43593145895922 1002.6940778231537 -76.526 996.28 C -80.81817956515754 989.5489700708863 -85.32657091016569 983.3782978604717 -88.394 974.742 C -92.40218505907247 963.4570186569064 -95.0657464193108 945.754710143063 -95.867 933.424 C -96.50767919717929 923.564412891119 -95.30502008454167 913.3731659194291 -94.548 906.611 C -94.08216766790275 902.4499009953636 -93.62503564132574 900.4231547710805 -92.79 896.599 C -91.64586203341943 891.3592707631416 -90.16128395565345 883.9829419229691 -87.955 878.138 C -85.80303300905742 872.4369559208938 -82.83079167398029 867.442970933845 -79.802 861.916 C -76.50717952050881 855.9035769011032 -72.49394495253793 849.2861945118103 -68.813 843.454 C -65.39249544365103 838.0344547043264 -62.09583554524067 833.1230259007002 -58.505 828.029 C -54.85528797037404 822.8514508266175 -50.685724642544635 818.031942005588 -47.076 812.644 C -43.346201689279255 807.076833808471 -39.54426403737334 801.1531935576671 -36.527 795.111 C -33.55023981491412 789.1499170486042 -31.395728867602344 782.8689046753047 -29.054 776.65 C -26.706299980312426 770.4152377990293 -24.393932509976434 764.4384399229313 -22.461 757.749 C -20.345588519630088 750.4280418510853 -19.03972805677144 741.3928001724564 -17.066 734.388 C -15.412730194978051 728.5205125436587 -14.074234725511111 723.7423084721946 -11.737 718.432 C -9.20957029011676 712.6895594762592 -6.349659532965087 706.5056960739153 -2.187 701.234 C 2.303394414634382 695.5472522805445 8.470693234551861 690.0172778633931 14.703 685.783 C 20.907966177907827 681.5672975451916 28.42032981279054 678.5226279226966 35.109 675.86 C 41.2144271125304 673.4295496631155 47.25963867054551 671.1587288561454 53.142 670.181 C 58.52436640944666 669.286377133752 63.99515925680112 669.4053695270997 68.966 669.796 C 73.46374527497542 670.1494525555165 77.43345871536991 670.9918534607338 81.713 672.131 C 86.24278255564798 673.336756827356 90.87189228201429 674.7529008986127 95.405 676.961 C 100.40220826965599 679.3951647664563 105.65242863244076 682.7180410959962 110.284 686.444 C 115.07430269040997 690.2976534462625 119.69918607239197 694.9553630430685 123.602 699.818 C 127.47961305229774 704.6492384045272 131.02809619619538 710.0612862701162 133.646 715.51 C 136.16422138921612 720.7512420343209 137.62377110784203 726.3183831503726 139.174 731.839 C 140.72188895465226 737.3512839521527 141.62794067729595 742.9367315992422 142.943 748.608 C 144.3013444589873 754.4659380219586 145.31991280862766 760.4916986110853 147.206 766.443 C 149.1849747691407 772.6873959887373 151.8465401621687 779.2117646355554 154.679 785.197 C 157.4328881008577 791.0162064123308 159.8733221687717 795.2839607220785 163.909 801.9 C 170.21336023263677 812.2352885600869 182.88224913599734 829.7694823451251 189.843 840.581 C 194.76544574621815 848.2265988915826 198.83387996765467 854.005268201238 202.084 860.394 C 204.88908648157562 865.9079333393134 206.72339804307157 871.2285999187626 208.644 876.454 C 210.4287584081784 881.3098092411814 211.9712722848802 885.8004199248024 213.309 890.69 C 214.69133852645575 895.7426387692663 216.11422925281698 901.1701605624319 216.76 906.31 C 217.3750879221623 911.2056277033182 217.2006727048962 915.4445838102214 217.232 920.815 C 217.27111580613314 927.52059516351 217.53587016688974 935.7680692688158 216.76 943.436 C 215.94406571547162 951.4998847090129 214.14886223185425 961.162451713328 212.26 968.051 C 210.83626327353204 973.2432681402522 209.11197618997997 977.2208404690928 207.326 981.384 C 205.68671636723033 985.205215152763 204.11106887662262 988.6898095839559 202.051 992.137 C 199.9521907511192 995.6490161320568 197.5433004015191 998.7765316848723 194.815 1002.246 C 191.69998725820795 1006.207234621689 188.24930345067673 1010.4411607014725 184.233 1014.52 C 179.68578688384548 1019.1380154922865 173.68119705900082 1024.5967986516112 168.711 1028.326 C 164.64064622837014 1031.3800376152878 161.23751637412767 1033.3614309654333 156.91 1035.732 C 151.98730194548105 1038.4286034477261 146.17023273786674 1041.3794270967048 140.613 1043.441 C 135.16535530201722 1045.4619189044067 129.20144086869976 1047.0213501790847 123.91 1048.039 C 119.25524840661939 1048.9342017499484 115.2900117996171 1049.1764676803537 110.587 1049.529 C 105.32499768800983 1049.9234336012898 99.16129951555348 1050.178115884212 93.817 1050.171 C 88.92222792881424 1050.1644826573247 84.26745818423257 1050.2915654209355 79.751 1049.595 C 75.41170322401739 1048.925757872202 67.21 1046.19 67.21 1046.19 C 67.21000000000001 1046.1900000000003 67.21 1046.19 67.21 1046.19 C 67.21 1046.19 67.21 1046.19 67.21 1046.19" bx:d="M 67.21 1046.19 R 67.21 1030.4 R 67.48 1017.29 R 67.48 1006.85 R 67.21 996.416 R 73.63 989.725 R 80.06 983.57 R 87.28 977.147 R 93.17 972.33 R 99.06 967.78 R 107.62 966.709 R 116.19 966.442 R 124.75 966.174 R 131.98 966.977 R 138.4 970.189 R 142.95 971.794 R 147.77 971.527 R 150.44 968.85 R 152.05 963.765 R 151.78 960.554 R 149.37 956.183 R 145.89 953.774 R 141.08 953.506 R 135.46 956.718 R 130.64 957.521 R 126.36 958.056 R 120.74 958.324 R 116.45 957.521 R 114.31 956.183 R 112.71 953.239 R 115.38 949.76 R 119.67 946.281 R 122.88 943.069 R 126.62 940.393 R 131.44 938.252 R 135.99 938.252 R 141.88 937.716 R 148.3 937.449 R 152.58 937.716 R 158.2 938.787 R 163.82 940.928 R 167.84 943.069 R 172.39 943.604 R 176.67 941.196 R 179.61 936.646 R 179.88 932.364 R 177.74 928.885 R 172.66 926.476 R 167.57 926.744 R 162.22 928.35 R 156.6 928.885 R 150.44 929.152 R 145.63 929.152 R 142.95 927.279 R 145.89 923.265 R 148.84 919.518 R 154.19 916.039 R 157.13 912.56 R 162.22 908.813 R 164.63 905.869 R 168.37 903.46 R 172.66 901.052 R 176.4 897.156 R 177.74 891.804 R 176.14 886.719 R 173.73 883.775 R 169.18 882.437 R 164.63 882.704 R 160.61 888.592 R 160.34 894.688 R 157.94 900.576 R 154.19 904.323 R 150.71 907.802 R 146.43 911.816 R 142.68 915.028 R 138.4 919.31 R 134.92 921.986 R 131.71 924.395 R 127.96 925.465 R 126.09 923.057 R 126.62 920.113 R 127.96 916.634 R 129.57 912.887 R 131.44 909.14 R 135.19 906.731 R 137.33 902.717 R 138.67 898.167 R 136.53 894.153 R 133.32 892.279 R 128.5 892.279 R 123.68 893.082 R 121 897.9 R 121.27 904.858 R 120.74 909.943 R 119.93 915.831 R 118.86 920.916 R 117.26 926.803 R 115.92 931.085 R 115.12 936.17 R 112.027 940.185 R 109.996 942.013 R 106.728 945.791 R 102.54 949.742 R 97.99 954.464 R 93.71 958.714 R 88.924 962.76 R 78.99 971.42 R 74.809 974.994 R 70.092 976.868 R 66.342 978.015 R 65.87 973.103 R 66.68 965.074 R 66.41 956.51 R 67.75 926.536 R 69.62 922.521 R 116.19 880.534 R 121.54 875.716 R 128.23 871.167 R 135.46 866.082 R 141.61 862.603 R 148.57 858.44 R 152.32 857.637 R 154.99 854.158 R 155.79 849.608 R 154.99 844.791 R 152.32 841.847 R 146.96 841.406 R 141.584 844.641 R 137.86 850.577 R 134.65 853.984 R 131.642 855.906 R 128.92 855.055 R 128.77 845.058 R 130.1 836.643 R 131.17 828.882 R 132.51 822.191 R 134.92 815.768 R 138.13 810.683 R 137.86 804.795 R 133.58 800.246 R 127.43 799.443 R 122.88 800.781 R 119.67 806.669 R 122.07 815.233 R 122.34 822.459 R 121.54 834.234 R 118.207 858.636 R 117.084 865.838 R 113.578 871.214 R 108.16 876.102 R 103.636 880.117 R 100.416 881.479 R 97.72 879.731 R 97.18 871.435 R 97.18 865.011 R 96.38 855.109 R 96.38 847.348 R 96.65 839.854 R 98.79 834.77 R 101.47 830.488 R 102 825.67 R 99.06 821.388 R 94.24 819.515 R 89.42 820.585 R 85.68 824.332 R 84.34 829.149 R 86.48 836.911 R 87.55 847.348 R 88.09 856.983 R 88.09 866.617 R 88.62 875.449 R 88.89 885.083 R 88.452 891.774 R 85.376 894.673 R 79.756 900.529 R 74.7 904.983 R 70.362 908.227 R 66.41 905.156 R 66.41 897.394 R 66.41 888.83 R 66.328 867.588 R 66.328 853.083 R 66.328 835.941 R 66.328 820.556 R 69.405 812.205 R 76.438 804.293 R 86.987 796.381 R 95.207 790.03 R 102.811 784.073 R 107.646 780.166 R 108.965 775.331 R 108.086 769.617 R 106.328 764.343 R 100.614 763.463 R 94.46 763.903 R 91.823 769.178 R 90.943 775.331 R 89.185 780.606 R 83.911 786.76 R 75.12 794.672 R 67.647 799.507 R 64.131 800.386 R 65.01 792.913 R 65.889 781.485 R 65.889 770.496 R 66.943 765.903 R 72.043 759.068 R 78.636 754.233 R 84.79 748.958 R 89.625 746.321 R 94.899 743.244 R 98.416 737.042 R 98.416 733.086 R 94.899 729.13 R 89.625 726.932 R 84.79 729.13 R 82.592 735.723 R 80.394 740.678 R 75.427 745.592 R 68.526 750.228 R 65.449 751.107 R 63.691 746.272 R 64.131 734.404 R 64.131 726.053 R 65.889 719.02 R 68.087 715.503 R 67.647 710.668 R 64.131 706.712 R 59.296 704.954 R 54.021 707.152 R 50.065 712.427 R 53.142 719.459 R 54.9 730.448 R 54.9 738.36 R 54.9 745.833 R 54.021 751.107 R 46.988 748.909 R 43.032 744.074 R 38.637 738.36 R 34.681 732.646 R 30.285 727.811 R 24.571 727.371 R 17.978 733.965 R 21.494 741.437 R 25.89 745.393 R 34.241 747.591 R 41.714 754.624 R 49.186 762.096 R 54.021 772.206 R 53.581 784.513 R 54.9 805.612 R 55.34 819.238 R 55.34 832.864 R 54.9 842.534 R 48.746 842.095 R 41.274 835.941 R 34.681 829.787 R 32.483 819.677 R 32.922 803.854 R 33.362 790.667 R 33.802 782.315 R 36.439 777.92 R 36.439 770.887 R 32.043 766.492 R 25.011 765.173 R 18.417 767.81 R 16.659 773.524 R 19.296 781.436 R 23.692 786.271 R 23.692 798.579 R 23.692 812.645 R 21.055 816.601 R 13.582 812.205 R 7.428 806.051 R 3.033 799.458 R -0.044 794.183 R -5.319 791.546 R -11.472 793.304 R -17.187 799.898 R -14.11 806.491 R -8.835 810.007 R -1.802 810.886 R 7.868 819.238 R 16.659 827.15 R 23.692 831.545 R 33.802 841.216 R 42.593 850.007 R 53.142 860.995 R 55.34 871.74 R 55.511 887.328 R 55.04 898.017 R 52.263 902.069 R 47.867 901.19 R 44.79 891.959 R 37.758 887.564 R 30.285 891.52 R 27.208 897.234 R 32.483 904.267 R 41.274 909.102 R 49.625 916.135 R 55.34 923.607 R 55.779 940.75 R 54.414 957.568 R 52.702 962.727 R 46.988 958.332 R 19.296 928.003 R 18.417 916.574 R 18.748 870.53 R 23.252 863.828 R 23.692 856.795 R 18.857 851.52 R 12.263 851.52 R 6.549 855.916 R 0.835 853.718 R -6.198 843.169 R -7.956 836.136 R -13.231 831.301 R -21.143 832.18 R -27.296 839.653 R -24.659 847.564 R -17.626 849.762 R -8.835 858.114 R 7.868 877.894 R 9.626 899.432 R 8.941 914.254 R 5.67 916.047 R -7.077 903.827 R -18.505 893.278 R -27.736 881.41 R -31.252 873.498 R -35.648 867.784 R -41.362 867.784 R -47.955 871.3 R -50.593 879.652 R -43.56 886.685 R -36.087 888.882 R -25.538 898.553 R -18.505 906.465 R -10.154 914.816 R -11.472 919.212 R -20.263 919.212 R -33.45 919.212 R -41.802 917.453 R -47.076 913.497 R -55.867 916.574 R -59.823 924.047 R -55.428 931.079 R -48.395 932.838 R -38.285 927.563 R -26.857 927.563 R -10.593 926.684 R 3.912 930.2 R 13.992 938.405 R 22.11 946.258 R 21.201 949.746 R 14.461 950.596 R 0.396 951.475 R -11.912 950.859 R -18.066 947.343 R -26.789 948.392 R -31.692 955.255 R -26.857 965.804 R -20.703 966.683 R -13.231 963.606 R -7.282 960.383 R 11.502 959.914 R 32.453 961.321 R 53.406 983.386 R 54.931 1014.096 R 54.286 1033.876 R 53.059 1045.222 R 48.633 1046.859 R 33.157 1050.17 R 18.857 1051.224 R -15.428 1045.949 R -30.813 1038.477 R -48.395 1028.367 R -63.34 1014.301 R -76.526 996.28 R -88.394 974.742 R -95.867 933.424 R -94.548 906.611 R -92.79 896.599 R -87.955 878.138 R -79.802 861.916 R -68.813 843.454 R -58.505 828.029 R -47.076 812.644 R -36.527 795.111 R -29.054 776.65 R -22.461 757.749 R -17.066 734.388 R -11.737 718.432 R -2.187 701.234 R 14.703 685.783 R 35.109 675.86 R 53.142 670.181 R 68.966 669.796 R 81.713 672.131 R 95.405 676.961 R 110.284 686.444 R 123.602 699.818 R 133.646 715.51 R 139.174 731.839 R 142.943 748.608 R 147.206 766.443 R 154.679 785.197 R 163.909 801.9 R 189.843 840.581 R 202.084 860.394 R 208.644 876.454 R 213.309 890.69 R 216.76 906.31 R 217.232 920.815 R 216.76 943.436 R 212.26 968.051 R 207.326 981.384 R 202.051 992.137 R 194.815 1002.246 R 184.233 1014.52 R 168.711 1028.326 R 156.91 1035.732 R 140.613 1043.441 R 123.91 1048.039 R 110.587 1049.529 R 93.817 1050.171 R 79.751 1049.595 R 67.21 1046.19 R 67.21 1046.19 Z 1@89e3d43c"/></g></g><text style="fill: rgb(73, 87, 1); font-family: &quot;Carter One&quot;; font-size: 205px; stroke-width: 3px; white-space: pre;" transform="matrix(0.995554, 0, 0, 0.995554, 1516.350265, 502.381973)" id="text-5"><tspan x="193.133" y="1233.06">lunch</tspan><tspan x="193.133" dy="1em"></tspan><tspan>STEM</tspan></text></g></svg>